<mxfile host="app.diagrams.net" modified="2024-07-01T14:53:23.288Z" agent="Mozilla/5.0 (Macintosh; Intel Mac OS X 10_15_7) AppleWebKit/605.1.15 (KHTML, like Gecko) Version/17.5 Safari/605.1.15" version="24.6.4" etag="N-Zylxz3CVGOCaIeR6-y" type="github">
  <diagram name="Страница — 1" id="uvXT9HgOAAHaYvMb8nn8">
    <mxGraphModel>
      <root>
        <mxCell id="0" />
        <mxCell id="1" parent="0" />
      </root>
    </mxGraphModel>
  </diagram>
</mxfile>
